<?xml version="1.0" encoding="iso-8859-1"?>
<!-- Generator: Adobe Illustrator 20.1.0, SVG Export Plug-In . SVG Version: 6.00 Build 0)  -->
<svg xmlns="http://www.w3.org/2000/svg" xmlns:xlink="http://www.w3.org/1999/xlink" version="1.1" id="&#1057;&#1083;&#1086;&#1081;_1" x="0px" y="0px" viewBox="0 0 64 64" style="enable-background:new 0 0 64 64;" xml:space="preserve">
<linearGradient id="SVGID_1__44046" gradientUnits="userSpaceOnUse" x1="42" y1="18.375" x2="42" y2="28.25" spreadMethod="reflect">
	<stop offset="0" style="stop-color:#6DC7FF"/>
	<stop offset="1" style="stop-color:#E6ABFF"/>
</linearGradient>
<circle style="fill:url(#SVGID_1__44046);" cx="42" cy="23" r="4"/>
<linearGradient id="SVGID_2__44046" gradientUnits="userSpaceOnUse" x1="32" y1="6.375" x2="32" y2="57.8691" spreadMethod="reflect">
	<stop offset="0" style="stop-color:#1A6DFF"/>
	<stop offset="1" style="stop-color:#C822FF"/>
</linearGradient>
<path style="fill:url(#SVGID_2__44046);" d="M55,20h-1.393c-0.286-1.061-0.749-2.078-1.336-3.029l1.042-1.043  c1.17-1.17,1.17-3.072,0-4.242s-3.072-1.17-4.242,0l-1.056,1.056c-0.943-0.577-1.956-1.036-3.015-1.336V10c0-1.654-1.346-3-3-3  s-3,1.346-3,3v1.406c-1.059,0.3-2.072,0.759-3.015,1.336l-1.056-1.056c-1.17-1.17-3.072-1.17-4.242,0  c-0.634,0.634-0.912,1.482-0.859,2.313H9c-1.654,0-3,1.346-3,3v34c0,1.302,0.838,2.402,2,2.816V55c0,1.103,0.897,2,2,2h29  c1.103,0,2-0.897,2-2v-1.184c1.162-0.414,2-1.514,2-2.816V38.816c1.162-0.414,2-1.514,2-2.816v-1.406  c1.059-0.3,2.072-0.759,3.015-1.336l1.056,1.056c0.585,0.585,1.353,0.877,2.121,0.877s1.536-0.292,2.121-0.877  c1.17-1.17,1.17-3.072,0-4.242l-1.042-1.043c0.588-0.951,1.051-1.968,1.336-3.029H55c1.654,0,3-1.346,3-3S56.654,20,55,20z   M50.485,13.101c0.379-0.377,1.035-0.377,1.414,0c0.188,0.189,0.293,0.44,0.293,0.707s-0.104,0.518-0.293,0.707l-0.836,0.836  c-0.436-0.504-0.909-0.975-1.419-1.409L50.485,13.101z M32.101,13.101c0.379-0.377,1.035-0.377,1.414,0l0.842,0.841  c-0.51,0.434-0.983,0.905-1.419,1.409l-0.836-0.836c-0.188-0.189-0.293-0.44-0.293-0.707S31.912,13.29,32.101,13.101z M10,55v-1h29  v1H10z M40,52H9c-0.552,0-1-0.448-1-1V17c0-0.552,0.448-1,1-1h21.758l0.971,0.971c-0.588,0.951-1.051,1.967-1.337,3.029H29  c-1.654,0-3,1.346-3,3s1.346,3,3,3h1.393c0.286,1.061,0.749,2.078,1.337,3.029l-1.043,1.043c-1.17,1.17-1.17,3.072,0,4.242  c0.585,0.585,1.353,0.877,2.121,0.877s1.536-0.292,2.121-0.877l1.056-1.056c0.943,0.577,1.956,1.036,3.015,1.336V36  c0,1.302,0.838,2.402,2,2.816V51C41,51.552,40.552,52,40,52z M32.101,31.485l0.836-0.836c0.436,0.504,0.909,0.975,1.419,1.409  l-0.842,0.841c-0.379,0.377-1.035,0.377-1.414,0c-0.188-0.189-0.293-0.44-0.293-0.707S31.912,31.675,32.101,31.485z M51.899,31.485  c0.188,0.189,0.293,0.44,0.293,0.707s-0.104,0.518-0.293,0.707c-0.379,0.377-1.035,0.377-1.414,0l-0.842-0.841  c0.51-0.434,0.983-0.905,1.419-1.409L51.899,31.485z M55,24h-3.023l-0.15,0.819c-0.693,3.769-4.145,7.213-8.027,8.011L43,32.994V36  c0,0.552-0.448,1-1,1s-1-0.448-1-1v-3.006l-0.799-0.164c-3.883-0.798-7.334-4.242-8.027-8.011L32.023,24H29c-0.552,0-1-0.448-1-1  s0.448-1,1-1h3.023l0.15-0.819c0.693-3.769,4.145-7.213,8.027-8.011L41,13.006V10c0-0.552,0.448-1,1-1s1,0.448,1,1v3.006  l0.799,0.164c3.883,0.798,7.334,4.242,8.027,8.011L51.977,22H55c0.552,0,1,0.448,1,1S55.552,24,55,24z"/>
<linearGradient id="SVGID_3__44046" gradientUnits="userSpaceOnUse" x1="42" y1="6.375" x2="42" y2="57.8691" spreadMethod="reflect">
	<stop offset="0" style="stop-color:#0D81FF"/>
	<stop offset="1" style="stop-color:#9610FF"/>
</linearGradient>
<path style="fill:url(#SVGID_3__44046);" d="M42,15c-4.411,0-8,3.589-8,8s3.589,8,8,8s8-3.589,8-8S46.411,15,42,15z M42,29  c-3.309,0-6-2.691-6-6s2.691-6,6-6s6,2.691,6,6S45.309,29,42,29z"/>
<linearGradient id="SVGID_4__44046" gradientUnits="userSpaceOnUse" x1="15" y1="6.375" x2="15" y2="57.8691" spreadMethod="reflect">
	<stop offset="0" style="stop-color:#1A6DFF"/>
	<stop offset="1" style="stop-color:#C822FF"/>
</linearGradient>
<path style="fill:url(#SVGID_4__44046);" d="M15,31c-1.654,0-3,1.346-3,3s1.346,3,3,3s3-1.346,3-3S16.654,31,15,31z M15,35  c-0.552,0-1-0.448-1-1s0.448-1,1-1s1,0.448,1,1S15.552,35,15,35z"/>
<linearGradient id="SVGID_5__44046" gradientUnits="userSpaceOnUse" x1="15" y1="6.375" x2="15" y2="57.8691" spreadMethod="reflect">
	<stop offset="0" style="stop-color:#1A6DFF"/>
	<stop offset="1" style="stop-color:#C822FF"/>
</linearGradient>
<path style="fill:url(#SVGID_5__44046);" d="M15,23c-1.654,0-3,1.346-3,3s1.346,3,3,3s3-1.346,3-3S16.654,23,15,23z M15,27  c-0.552,0-1-0.448-1-1s0.448-1,1-1s1,0.448,1,1S15.552,27,15,27z"/>
<linearGradient id="SVGID_6__44046" gradientUnits="userSpaceOnUse" x1="15" y1="6.375" x2="15" y2="57.8691" spreadMethod="reflect">
	<stop offset="0" style="stop-color:#1A6DFF"/>
	<stop offset="1" style="stop-color:#C822FF"/>
</linearGradient>
<path style="fill:url(#SVGID_6__44046);" d="M15,39c-1.654,0-3,1.346-3,3s1.346,3,3,3s3-1.346,3-3S16.654,39,15,39z M15,43  c-0.552,0-1-0.448-1-1s0.448-1,1-1s1,0.448,1,1S15.552,43,15,43z"/>
<linearGradient id="SVGID_7__44046" gradientUnits="userSpaceOnUse" x1="22.5" y1="6.375" x2="22.5" y2="57.8691" spreadMethod="reflect">
	<stop offset="0" style="stop-color:#1A6DFF"/>
	<stop offset="1" style="stop-color:#C822FF"/>
</linearGradient>
<rect x="20" y="27" style="fill:url(#SVGID_7__44046);" width="5" height="2"/>
<linearGradient id="SVGID_8__44046" gradientUnits="userSpaceOnUse" x1="24" y1="6.375" x2="24" y2="57.8691" spreadMethod="reflect">
	<stop offset="0" style="stop-color:#1A6DFF"/>
	<stop offset="1" style="stop-color:#C822FF"/>
</linearGradient>
<rect x="20" y="35" style="fill:url(#SVGID_8__44046);" width="8" height="2"/>
<linearGradient id="SVGID_9__44046" gradientUnits="userSpaceOnUse" x1="28.5" y1="6.375" x2="28.5" y2="57.8691" spreadMethod="reflect">
	<stop offset="0" style="stop-color:#1A6DFF"/>
	<stop offset="1" style="stop-color:#C822FF"/>
</linearGradient>
<rect x="20" y="43" style="fill:url(#SVGID_9__44046);" width="17" height="2"/>
<linearGradient id="SVGID_10__44046" gradientUnits="userSpaceOnUse" x1="28.5" y1="6.375" x2="28.5" y2="57.8691" spreadMethod="reflect">
	<stop offset="0" style="stop-color:#1A6DFF"/>
	<stop offset="1" style="stop-color:#C822FF"/>
</linearGradient>
<rect x="20" y="39" style="fill:url(#SVGID_10__44046);" width="17" height="2"/>
<linearGradient id="SVGID_11__44046" gradientUnits="userSpaceOnUse" x1="24" y1="6.375" x2="24" y2="57.8691" spreadMethod="reflect">
	<stop offset="0" style="stop-color:#1A6DFF"/>
	<stop offset="1" style="stop-color:#C822FF"/>
</linearGradient>
<rect x="20" y="31" style="fill:url(#SVGID_11__44046);" width="8" height="2"/>
<linearGradient id="SVGID_12__44046" gradientUnits="userSpaceOnUse" x1="22.5" y1="6.375" x2="22.5" y2="57.8691" spreadMethod="reflect">
	<stop offset="0" style="stop-color:#1A6DFF"/>
	<stop offset="1" style="stop-color:#C822FF"/>
</linearGradient>
<rect x="20" y="24" style="fill:url(#SVGID_12__44046);" width="5" height="2"/>
</svg>
